<?xml version="1.0" encoding="utf-8"?>
<!-- Generator: Adobe Illustrator 22.1.0, SVG Export Plug-In . SVG Version: 6.00 Build 0)  -->
<svg version="1.1" id="Layer_1" xmlns="http://www.w3.org/2000/svg" xmlns:xlink="http://www.w3.org/1999/xlink" x="0px" y="0px"
	 viewBox="0 0 256 256" style="enable-background:new 0 0 256 256;" xml:space="preserve">
<path d="M254.2,124.9l-10.8-6.7c-0.1-1-0.2-2.1-0.3-3.1l9.2-8.6c0.9-0.9,1.4-2.2,1.1-3.4c-0.2-1.3-1.1-2.3-2.3-2.8l-11.8-4.4l-0.9-3
	l7.4-10.2c0.8-1,0.9-2.4,0.4-3.6c-0.5-1.2-1.6-2-2.8-2.2l-12.5-2c-0.5-0.9-1-1.9-1.5-2.8l5.2-11.5c0.5-1.2,0.4-2.5-0.3-3.6
	s-1.9-1.7-3.2-1.6l-12.6,0.4c-0.7-0.8-1.3-1.6-2-2.4l2.9-12.3c0.3-1.2-0.1-2.6-1-3.5c-0.9-0.9-2.2-1.3-3.5-1l-12.3,2.9
	c-0.8-0.7-1.6-1.3-2.4-2l0.4-12.6c0-1.3-0.6-2.5-1.6-3.2c-1.1-0.7-2.4-0.8-3.6-0.3L184,26.5c-0.9-0.5-1.9-1-2.8-1.5l-2-12.5
	c-0.2-1.3-1-2.3-2.2-2.8c-1.2-0.5-2.5-0.3-3.6,0.4l-10.2,7.4l-3-0.9l-4.4-11.8c-0.4-1.2-1.5-2.1-2.7-2.3c-1.3-0.2-2.6,0.2-3.4,1.1
	l-8.6,9.2c-1-0.1-2.1-0.2-3.1-0.3l-6.7-10.8c-0.8-1-2-1.7-3.3-1.7c-1.3,0-2.5,0.7-3.2,1.8l-6.6,10.8c-1.1,0.1-2.1,0.2-3.1,0.3
	l-8.6-9.2c-0.9-0.9-2.2-1.3-3.4-1.1c-1.3,0.2-2.3,1.1-2.7,2.3L96,16.7c-1,0.3-2,0.6-3,0.9l-10.2-7.4c-1-0.8-2.4-0.9-3.6-0.4
	c-1.2,0.5-2,1.6-2.2,2.8l-2,12.5c-0.9,0.5-1.9,1-2.8,1.5l-11.5-5.2c-1.2-0.5-2.5-0.4-3.6,0.3s-1.7,1.9-1.6,3.2l0.4,12.6
	c-0.8,0.7-1.6,1.3-2.4,2l-12.5-3c-1.2-0.3-2.6,0.1-3.5,1c-0.9,0.9-1.3,2.2-1,3.5l2.9,12.3c-0.7,0.8-1.3,1.6-2,2.4l-12.6-0.4
	c-1.3,0-2.5,0.6-3.2,1.6s-0.8,2.4-0.3,3.6L26.5,72c-0.5,0.9-1,1.9-1.5,2.8l-12.5,2c-1.3,0.2-2.3,1.1-2.8,2.2
	c-0.5,1.2-0.3,2.5,0.4,3.6l7.4,10.2c-0.3,1-0.6,2-0.9,3l-11.8,4.4c-1.2,0.5-2.1,1.5-2.3,2.8c-0.2,1.2,0.2,2.5,1.1,3.4l9.2,8.6
	c-0.1,1-0.2,2.1-0.3,3.1l-10.8,6.7c-1,0.7-1.7,1.9-1.7,3.2s0.7,2.5,1.8,3.1l10.8,6.7c0.1,1,0.2,2.1,0.3,3.1l-9.2,8.6
	c-0.9,0.9-1.4,2.2-1.1,3.4c0.2,1.2,1.1,2.3,2.3,2.7l11.8,4.4l0.9,3l-7.4,10.2c-0.8,1-0.9,2.4-0.4,3.6s1.6,2,2.8,2.2l12.5,2
	c0.5,0.9,1,1.9,1.5,2.8l-5.2,11.5c-0.5,1.2-0.4,2.5,0.3,3.6c0.7,1.1,1.9,1.7,3.2,1.6l12.6-0.4c0.7,0.8,1.3,1.6,2,2.4l-2.9,12.3
	c-0.3,1.2,0.1,2.5,1,3.5c0.9,0.9,2.2,1.3,3.5,1l12.3-2.9c0.8,0.7,1.6,1.3,2.4,2L55.4,231c0,1.3,0.6,2.5,1.6,3.2
	c1.1,0.7,2.4,0.8,3.6,0.3l11.5-5.2c0.9,0.5,1.8,1,2.8,1.5l2,12.4c0.2,1.3,1.1,2.3,2.2,2.8c1.2,0.5,2.5,0.3,3.6-0.4l10.2-7.4l3,0.9
	l4.4,11.8c0.4,1.2,1.5,2.1,2.7,2.3c1.3,0.2,2.6-0.2,3.4-1.1l8.6-9.2c1,0.1,2.1,0.2,3.1,0.3l6.6,10.7c0.7,1.1,1.9,1.8,3.1,1.8
	c1.3,0,2.5-0.7,3.2-1.8l6.6-10.7c1-0.1,2.1-0.2,3.1-0.3l8.6,9.2c0.9,0.9,2.2,1.4,3.4,1.1c1.3-0.2,2.3-1.1,2.8-2.3l4.4-11.8l3-0.9
	l10.2,7.4c1,0.8,2.4,0.9,3.6,0.4s2-1.6,2.2-2.8l2-12.4c0.9-0.5,1.9-1,2.8-1.5l11.5,5.2c1.2,0.5,2.5,0.4,3.6-0.3
	c1.1-0.7,1.7-1.9,1.6-3.2l-0.4-12.6c0.8-0.6,1.6-1.3,2.4-2l12.3,2.9c1.2,0.3,2.6-0.1,3.5-1c0.9-0.9,1.3-2.2,1-3.5l-2.9-12.3
	c0.7-0.8,1.3-1.6,2-2.4l12.6,0.4c1.3,0,2.5-0.6,3.2-1.6c0.7-1,0.8-2.4,0.3-3.6l-5.2-11.5c0.5-0.9,1-1.9,1.5-2.8l12.5-2
	c1.3-0.2,2.3-1,2.8-2.2c0.5-1.2,0.3-2.5-0.4-3.6l-7.4-10.2c0.3-1,0.6-2,0.9-3l11.8-4.4c1.2-0.5,2.1-1.5,2.3-2.7
	c0.2-1.3-0.2-2.6-1.1-3.4l-9.2-8.6c0.1-1,0.2-2.1,0.3-3.1l10.8-6.7c1.1-0.7,1.8-1.9,1.8-3.1C256,126.7,255.3,125.5,254.2,124.9z
	 M128,22.5c4.1,0,7.5,3.4,7.5,7.5s-3.4,7.5-7.5,7.5c-4.1,0-7.5-3.4-7.5-7.5S123.9,22.5,128,22.5z M108.6,37.1L122,50.5
	c3.1,3.1,8.2,3.1,11.3,0L147,37.2c18.8,3.9,35.5,13.5,48.2,26.9H66.1c-0.9,0-1.6,0.7-1.6,1.6V109c0,0.9,0.7,1.6,1.6,1.6h25.1
	c0.9,0,1.6-0.7,1.6-1.6V93.9c0-0.9,0.7-1.6,1.6-1.6h31.7c1.4,0,2.1,1.7,1.1,2.7L68,153.2c-0.3,0.3-0.7,0.5-1.1,0.5H38.6
	c-2.3-8.2-3.6-16.8-3.6-25.7c0-3.4,0.2-6.7,0.5-10l16.8-8.6c3.9-2,5.5-6.8,3.5-10.8l-8.6-16.9C60.2,59.1,82.4,42.5,108.6,37.1z
	 M27.7,95.3c1.3-3.9,5.5-6.1,9.5-4.8c3.9,1.3,6.1,5.5,4.8,9.5s-5.6,6.1-9.5,4.8S26.4,99.3,27.7,95.3z M76.5,211.7
	c-2.4,3.4-7.1,4.1-10.5,1.7c-3.4-2.4-4.1-7.1-1.7-10.5c2.4-3.4,7.1-4.1,10.5-1.7C78.2,203.6,78.9,208.3,76.5,211.7z M190,213.3
	c-3.4,2.4-8,1.7-10.5-1.7c-2.5-3.4-1.7-8,1.7-10.5c3.4-2.4,8-1.7,10.5,1.7C194.2,206.2,193.4,210.9,190,213.3z M196.8,190.3
	L196.8,190.3l-18.7-3c-4.4-0.7-8.5,2.3-9.2,6.7l-3,18.7c-11.6,5.2-24.4,8.1-38,8.1c-13.5,0-26.4-2.9-38-8.1l-3-18.7
	c-0.7-4.4-4.8-7.3-9.2-6.7l-18.7,3c-2.4-2.6-4.6-5.4-6.7-8.3h145.5c0.9,0,1.6-0.7,1.6-1.6V137c0-0.9-0.7-1.6-1.6-1.6h-25.1
	c-0.9,0-1.6,0.7-1.6,1.6v15.1c0,0.9-0.7,1.6-1.6,1.6h-39.7c-1.4,0-2.1-1.7-1.1-2.7l59.2-58.2c0.3-0.3,0.7-0.5,1.1-0.5h14.1l-3.3,6.4
	c-2,3.9-0.4,8.8,3.5,10.8l16.9,8.6c0.3,3.3,0.5,6.6,0.5,10C220.8,152,211.7,173.8,196.8,190.3z M223.5,104.8
	c-3.9,1.3-8.2-0.9-9.5-4.8c-1.3-3.9,0.9-8.2,4.8-9.5c3.9-1.3,8.2,0.9,9.5,4.8C229.6,99.3,227.5,103.6,223.5,104.8z"/>
</svg>
